{"title":"Date.Night.2010.DvDRiP.XViD.Optional MultiSub.Zen_Bud","uid":5779797,"size":1498218882,"categoryP":"video","categoryS":"movies","magnet":"?xt=urn:btih:ae1d90c29e00bbed80c0eb919464797a7a23ed96&amp;dn=Date.Night.2010.DvDRiP.XViD.Optional+MultiSub.Zen_Bud&amp;tr=udp%3A%2F%2Ftracker.openbittorrent.com%3A80&amp;tr=udp%3A%2F%2Fopen.demonii.com%3A1337&amp;tr=udp%3A%2F%2Ftracker.coppersurfer.tk%3A6969&amp;tr=udp%3A%2F%2Fexodus.desync.com%3A6969","seeders":0,"leechers":0,"uploader":"Zen_Bud","files":-1,"time":1282380906,"description":"****Date.Night.2010.DvDRiP.XViD.Optional MultiSub.Zen_Bud.avi****\n\nFormat                           : AVI\nFile size                        : 1.37 GiB\nDuration                         : 1h 24mn\nOverall bit rate                 : 2 328 Kbps\n\nVideo\n\nFormat                           : MPEG-4 Visual\nCodec ID/Hint                    : XviD\nDuration                         : 1h 24mn\nBit rate                         : 1 869 Kbps\nWidth                            : 718 pixels\nHeight                           : 436 pixels\nDisplay aspect ratio             : 2.35:1\nStream size                      : 1.10 GiB (80%)\nWriting library                  : XviD 1.1.2 (UTC 2006-11-01)\n\nAudio\n\nFormat                           : AC-3\nDuration                         : 1h 24mn\nBit rate                         : 448 Kbps\nChannel(s)                       : 6 channels\nChannel positions                : Front: L C R, Side: L R, LFE\nSampling rate                    : 48.0 KHz\nStream size                      : 270 MiB (19%)\n\n***** Text: English Danish Finnish Norwegian Swedish *****\n\n","torrent":{"xt":"urn:btih:ae1d90c29e00bbed80c0eb919464797a7a23ed96","amp;dn":"Date.Night.2010.DvDRiP.XViD.Optional+MultiSub.Zen_Bud","amp;tr":["udp%3A%2F%2Ftracker.openbittorrent.com%3A80","udp%3A%2F%2Fopen.demonii.com%3A1337","udp%3A%2F%2Ftracker.coppersurfer.tk%3A6969","udp%3A%2F%2Fexodus.desync.com%3A6969"],"infoHash":"ae1d90c29e00bbed80c0eb919464797a7a23ed96","infoHashBuffer":{"type":"Buffer","data":[174,29,144,194,158,0,187,237,128,192,235,145,148,100,121,122,122,35,237,150]},"announce":[],"urlList":[]}}